<svg xmlns="http://www.w3.org/2000/svg" width="43" height="63" viewBox="0 0 43 63">
  <defs>
    <style>
      .cls-1 {
        fill: #002ba7;
        fill-rule: evenodd;
      }
    </style>
  </defs>
  <path id="map-icon.svg" class="cls-1" d="M1201.98,3018.68a19.723,19.723,0,0,0-1-2.52,20.973,20.973,0,0,0-19.77-13.16c-9.43,0-19.82,6.38-21.21,19.54v2.69c0,0.11.04,1.12,0.09,1.63,0.78,6.27,5.68,12.93,9.34,19.2,3.94,6.72,8.03,13.33,12.08,19.94,2.5-4.31,4.99-8.68,7.43-12.88,0.66-1.23,1.43-2.47,2.1-3.64,0.44-.78,1.29-1.57,1.68-2.3,3.94-7.28,10.28-14.61,10.28-21.84v-2.96A21.814,21.814,0,0,0,1201.98,3018.68Zm-20.6,13.5a7.622,7.622,0,0,1-7.3-5.27,7.128,7.128,0,0,1-.21-1.96v-1.74c0-4.92,4.15-7.16,7.75-7.16a7.89,7.89,0,0,1,7.87,8.06A8.1,8.1,0,0,1,1181.38,3032.18Z" transform="translate(-1160 -3003)"/>
</svg>
